<svg version="1.2" xmlns="http://www.w3.org/2000/svg" viewBox="0 0 400 399" width="400" height="399"><defs><linearGradient id="P" gradientUnits="userSpaceOnUse"/><linearGradient id="g1" x2="1" href="#P" gradientTransform="matrix(-178.389,115.5,-75.456,-116.541,415.138,200.823)"><stop offset=".08" stop-color="#69d3a7" stop-opacity="1"/><stop offset="1" stop-color="#69d3a7" stop-opacity="0"/></linearGradient><linearGradient id="g2" x2="1" href="#P" gradientTransform="matrix(-112.026,237.595,-84.359,-39.775,133.473,2.689)"><stop stop-color="#69d3a7"/><stop offset=".82" stop-color="#2ab586"/><stop offset="1" stop-color="#1cae7f"/></linearGradient><linearGradient id="g3" x2="1" href="#P" gradientTransform="matrix(293.866,92.226,-37.075,118.134,-0.072,290.864)"><stop offset=".08" stop-color="#1cae7f"/><stop offset=".16" stop-color="#1ca379"/><stop offset=".32" stop-color="#1c8568"/><stop offset=".52" stop-color="#1b554d"/><stop offset=".72" stop-color="#1b1e2e"/></linearGradient></defs><style>.a{fill:#1b1e2e}.b{fill:url(#g1)}.c{fill:#69d3a7}.d{fill:url(#g2)}.e{fill:url(#g3)}</style><path class="a" d="m140.7 158.4c16.1 0 29.2 8.6 36 23.6l0.5 1.2 27-9.2-0.5-1.4c-10.5-25.6-34.7-41.4-63-41.4-20 0-36.3 6.4-49.7 19.5-13.3 13.1-20 29.5-20 48.9 0 19.2 6.7 35.6 20 48.6 13.4 13.1 29.7 19.5 49.7 19.5 28.3 0 52.5-15.9 63-41.4l0.5-1.4-27.1-9.2-0.4 1.2c-6.1 14.8-19.6 23.6-36 23.6-11.3 0-20.8-3.9-28.3-11.7-7.6-7.8-11.4-17.7-11.4-29.2 0-11.7 3.7-21.3 11.4-29.5 7.6-7.8 17-11.7 28.3-11.7z"/><path class="b" d="m258.3 390.3l-8.1-26.6c72.8-22.1 121.8-88.1 121.8-164.1 0-21-3.8-41.5-11.2-60.9l26-9.9c8.7 22.6 13 46.4 13 70.8 0 88.4-56.9 165-141.5 190.7z"/><path class="c" d="m364.5 149.3c-22.3-72.6-88.4-121.3-164.5-121.3-10.3 0-20.7 0.9-30.8 2.7l-4.9-27.3c11.7-2.1 23.7-3.2 35.7-3.2 88.4 0 165.2 56.6 191 140.9z"/><path class="d" d="m13 269.9c-8.5-22.5-12.8-46.1-12.8-70.3 0-103 77.4-188.3 179.9-198.4l2.8 27.6c-88.3 8.7-154.9 82.2-154.9 170.8 0 20.8 3.7 41.2 11 60.5z"/><path class="a" d="m310.3 133.7l-38.6 97.7-38.9-97.7h-31.7l54.5 133.4-39.7 96.2 27.8 5.6 96.6-235.2z"/><path class="e" d="m220.9 351.2l-5.9 14.2c-1.3 3.2-4.4 5.5-7.8 5.6-2.4 0.1-4.8 0.2-7.2 0.2-76.4 0-144.4-51.1-165.3-124.3l-26.8 7.7c24.4 84.9 103.4 144.3 192 144.4h0.1q4.1 0 8.3-0.2c14.2-0.6 27-9.6 32.5-22.8l7.9-19.2z"/></svg>